STARTFONT 2.1
FONT -Monotype-Nimrod-Bold-I-Normal--17-120-100-100-P-111-iso8859-5
SIZE 12 100 100
FONTBOUNDINGBOX 24 21 -2 -4

STARTPROPERTIES 24
FOUNDRY "Monotype"
FAMILY_NAME "Nimrod"
WEIGHT_NAME "Bold"
SLANT "I"
SETWIDTH_NAME "Normal"
ADD_STYLE_NAME ""
PIXEL_SIZE 17
POINT_SIZE 120
RESOLUTION_X 100
RESOLUTION_Y 100
SPACING "P"
AVERAGE_WIDTH 111
CHARSET_REGISTRY "iso8859"
CHARSET_ENCODING "5"
FACE_NAME "Nimrod Bold Inclined ISO Latin Cyrillic"
_DEC_DEVICE_FONTNAMES "PS=nimrod-bin-latcyrillic"
COPYRIGHT "Copyright (c) 1994 Monotype Typography Ltd."
CAP_HEIGHT 15
X_HEIGHT 11
WEIGHT 10
QUAD_WIDTH 12
DEFAULT_CHAR 160
FONT_DESCENT 4
FONT_ASCENT 17
ENDPROPERTIES

CHARS 191

STARTCHAR space
ENCODING 32
SWIDTH 250 0
DWIDTH 4 0
BBX 0 0 0 0
BITMAP
ENDCHAR

STARTCHAR exclam
ENCODING 33
SWIDTH 375 0
DWIDTH 6 0
BBX 5 13 1 0
BITMAP
18
38
38
30
70
70
60
60
40
00
E0
E0
E0
ENDCHAR

STARTCHAR quotedbl
ENCODING 34
SWIDTH 552 0
DWIDTH 9 0
BBX 7 5 1 8
BITMAP
66
66
CC
CC
88
ENDCHAR

STARTCHAR numbersign
ENCODING 35
SWIDTH 667 0
DWIDTH 11 0
BBX 11 13 0 0
BITMAP
18C0
18C0
18C0
18C0
7FE0
3180
3180
3180
FFC0
6300
6300
6300
6300
ENDCHAR

STARTCHAR dollar
ENCODING 36
SWIDTH 510 0
DWIDTH 9 0
BBX 8 15 1 -2
BITMAP
04
1E
39
73
72
78
3C
1C
0E
4E
CE
9C
78
20
20
ENDCHAR

STARTCHAR percent
ENCODING 37
SWIDTH 1000 0
DWIDTH 17 0
BBX 12 13 3 0
BITMAP
38C0
6C80
6D80
CD00
DB00
DA00
76E0
05B0
0DB0
0B30
1B60
1360
31C0
ENDCHAR

STARTCHAR ampersand
ENCODING 38
SWIDTH 927 0
DWIDTH 16 0
BBX 15 13 1 0
BITMAP
01E0
0730
0630
0E60
0CC0
0F80
3B3E
7398
E190
E1E0
E0C2
71E4
3F78
ENDCHAR

STARTCHAR quoteright
ENCODING 39
SWIDTH 323 0
DWIDTH 5 0
BBX 3 5 1 8
BITMAP
60
E0
60
20
C0
ENDCHAR

STARTCHAR parenleft
ENCODING 40
SWIDTH 385 0
DWIDTH 7 0
BBX 7 16 1 -3
BITMAP
06
0C
18
30
30
70
60
E0
E0
E0
E0
E0
60
60
30
18
ENDCHAR

STARTCHAR parenright
ENCODING 41
SWIDTH 385 0
DWIDTH 7 0
BBX 7 16 0 -3
BITMAP
30
18
0C
0C
0E
0E
0E
0E
0E
0C
1C
18
18
30
60
C0
ENDCHAR

STARTCHAR asterisk
ENCODING 42
SWIDTH 552 0
DWIDTH 9 0
BBX 7 8 1 5
BITMAP
18
18
D0
F6
3E
D0
D8
18
ENDCHAR

STARTCHAR plus
ENCODING 43
SWIDTH 667 0
DWIDTH 11 0
BBX 8 8 2 1
BITMAP
18
18
18
FF
FF
18
18
18
ENDCHAR

STARTCHAR comma
ENCODING 44
SWIDTH 323 0
DWIDTH 5 0
BBX 3 5 1 -2
BITMAP
60
E0
60
20
C0
ENDCHAR

STARTCHAR minus
ENCODING 45
SWIDTH 667 0
DWIDTH 11 0
BBX 9 2 1 4
BITMAP
FF80
FF80
ENDCHAR

STARTCHAR period
ENCODING 46
SWIDTH 323 0
DWIDTH 5 0
BBX 3 3 1 0
BITMAP
E0
E0
E0
ENDCHAR

STARTCHAR slash
ENCODING 47
SWIDTH 552 0
DWIDTH 9 0
BBX 8 13 1 0
BITMAP
03
02
06
04
0C
08
18
10
30
20
60
40
C0
ENDCHAR

STARTCHAR zero
ENCODING 48
SWIDTH 562 0
DWIDTH 10 0
BBX 9 13 1 0
BITMAP
0E00
3B00
7380
6380
E380
E380
E380
E380
E380
E300
E700
6E00
3800
ENDCHAR

STARTCHAR one
ENCODING 49
SWIDTH 562 0
DWIDTH 10 0
BBX 7 13 2 0
BITMAP
06
3E
0E
0E
0E
1C
1C
1C
1C
38
38
38
FE
ENDCHAR

STARTCHAR two
ENCODING 50
SWIDTH 562 0
DWIDTH 10 0
BBX 10 13 0 0
BITMAP
0F80
13C0
31C0
39C0
11C0
0380
0700
0E00
1800
3080
6180
FF00
FF00
ENDCHAR

STARTCHAR three
ENCODING 51
SWIDTH 562 0
DWIDTH 10 0
BBX 10 13 0 0
BITMAP
0F80
19C0
1DC0
09C0
0180
0F00
0380
0380
0380
4380
E380
C700
7C00
ENDCHAR

STARTCHAR four
ENCODING 52
SWIDTH 562 0
DWIDTH 10 0
BBX 8 13 1 0
BITMAP
01
03
07
0F
17
27
2E
4E
8E
FF
1C
1C
7F
ENDCHAR

STARTCHAR five
ENCODING 53
SWIDTH 562 0
DWIDTH 10 0
BBX 10 13 0 0
BITMAP
1FC0
1F80
1000
1000
2000
3C00
2F00
0780
6380
E380
C380
6700
3C00
ENDCHAR

STARTCHAR six
ENCODING 54
SWIDTH 562 0
DWIDTH 10 0
BBX 10 13 1 0
BITMAP
0F80
38C0
71C0
6080
E000
FC00
E600
E700
E700
E700
E700
6E00
3800
ENDCHAR

STARTCHAR seven
ENCODING 55
SWIDTH 562 0
DWIDTH 10 0
BBX 9 13 2 0
BITMAP
7F80
7F00
C300
8600
0600
0E00
1C00
1C00
3800
3800
7000
7000
7000
ENDCHAR

STARTCHAR eight
ENCODING 56
SWIDTH 562 0
DWIDTH 10 0
BBX 9 13 1 0
BITMAP
1E00
3300
7380
7380
7380
3300
3E00
6600
E700
E700
E700
6600
3C00
ENDCHAR

STARTCHAR nine
ENCODING 57
SWIDTH 562 0
DWIDTH 10 0
BBX 10 13 0 0
BITMAP
0700
1D80
39C0
39C0
39C0
39C0
19C0
0FC0
01C0
4180
E380
C700
7C00
ENDCHAR

STARTCHAR colon
ENCODING 58
SWIDTH 323 0
DWIDTH 5 0
BBX 4 9 1 0
BITMAP
70
70
70
00
00
00
E0
E0
E0
ENDCHAR

STARTCHAR semicolon
ENCODING 59
SWIDTH 323 0
DWIDTH 5 0
BBX 5 11 0 -2
BITMAP
38
38
38
00
00
00
60
E0
60
20
C0
ENDCHAR

STARTCHAR less
ENCODING 60
SWIDTH 667 0
DWIDTH 11 0
BBX 9 8 1 1
BITMAP
0080
0780
3E00
E000
E000
3E00
0780
0080
ENDCHAR

STARTCHAR equal
ENCODING 61
SWIDTH 667 0
DWIDTH 11 0
BBX 9 6 1 2
BITMAP
FF80
FF80
0000
0000
FF80
FF80
ENDCHAR

STARTCHAR greater
ENCODING 62
SWIDTH 667 0
DWIDTH 11 0
BBX 9 8 1 1
BITMAP
8000
F000
3E00
0380
0380
3E00
F000
8000
ENDCHAR

STARTCHAR question
ENCODING 63
SWIDTH 458 0
DWIDTH 8 0
BBX 8 13 0 0
BITMAP
7C
CE
E7
47
07
0E
1C
30
20
00
70
70
70
ENDCHAR

STARTCHAR at
ENCODING 64
SWIDTH 833 0
DWIDTH 14 0
BBX 14 16 0 -3
BITMAP
07C0
1830
2008
43A8
46E4
8CC4
8CC4
98C4
9988
9988
9B90
4EE0
4004
2008
1830
07C0
ENDCHAR

STARTCHAR A
ENCODING 65
SWIDTH 802 0
DWIDTH 14 0
BBX 14 13 0 0
BITMAP
0060
00E0
00E0
0170
0270
0270
0470
0870
1FF8
1038
2038
6038
F8FC
ENDCHAR

STARTCHAR B
ENCODING 66
SWIDTH 802 0
DWIDTH 14 0
BBX 14 13 0 0
BITMAP
3FE0
0E38
0E1C
0E1C
1C1C
1C38
1FE0
1C70
1C38
3838
3838
3870
FFC0
ENDCHAR

STARTCHAR C
ENCODING 67
SWIDTH 740 0
DWIDTH 13 0
BBX 12 13 1 0
BITMAP
07E0
1C70
3830
7020
E020
E000
E000
E000
E000
E020
7020
7840
1F80
ENDCHAR

STARTCHAR D
ENCODING 68
SWIDTH 854 0
DWIDTH 15 0
BBX 15 13 0 0
BITMAP
3FF0
0E3C
0E1C
0E0E
1C0E
1C0E
1C0E
1C0E
1C1C
381C
3838
3870
FFC0
ENDCHAR

STARTCHAR E
ENCODING 69
SWIDTH 740 0
DWIDTH 13 0
BBX 13 13 0 0
BITMAP
3FF0
0E38
0E18
0E10
1C50
1C40
1FC0
1C80
1C90
3810
3830
3860
FFE0
ENDCHAR

STARTCHAR F
ENCODING 70
SWIDTH 729 0
DWIDTH 12 0
BBX 13 13 0 0
BITMAP
3FF8
0E38
0E18
0E10
1C50
1C40
1FC0
1C80
1C80
3800
3800
3800
FE00
ENDCHAR

STARTCHAR G
ENCODING 71
SWIDTH 854 0
DWIDTH 15 0
BBX 13 13 1 0
BITMAP
07F0
1C38
3818
7010
6010
E000
E000
E1F8
E070
E060
70E0
78C0
1F80
ENDCHAR

STARTCHAR H
ENCODING 72
SWIDTH 865 0
DWIDTH 15 0
BBX 16 13 0 0
BITMAP
3FBF
0E1C
0E1C
0E1C
1C38
1C38
1FF8
1C38
1C38
3870
3870
3870
FDFC
ENDCHAR

STARTCHAR I
ENCODING 73
SWIDTH 479 0
DWIDTH 8 0
BBX 9 13 0 0
BITMAP
3F80
0E00
0E00
0E00
1C00
1C00
1C00
1C00
1C00
3800
3800
3800
FE00
ENDCHAR

STARTCHAR J
ENCODING 74
SWIDTH 656 0
DWIDTH 11 0
BBX 12 13 0 0
BITMAP
07F0
01C0
01C0
01C0
01C0
0380
0380
0380
4380
E700
C700
4E00
3800
ENDCHAR

STARTCHAR K
ENCODING 75
SWIDTH 823 0
DWIDTH 14 0
BBX 15 13 0 0
BITMAP
3F3E
0E18
0E10
0E60
1CC0
1D80
1FC0
1CC0
1CE0
38E0
3870
3870
FEFC
ENDCHAR

STARTCHAR L
ENCODING 76
SWIDTH 698 0
DWIDTH 12 0
BBX 11 13 1 0
BITMAP
3F80
0E00
0E00
0E00
1C00
1C00
1C00
1C00
1C20
3820
3860
38C0
FFC0
ENDCHAR

STARTCHAR M
ENCODING 77
SWIDTH 1031 0
DWIDTH 18 0
BBX 19 13 0 0
BITMAP
3E03E0
0E0380
0E0780
170780
170F00
170F00
139700
13A700
13A700
23CE00
21CE00
218E00
F93F80
ENDCHAR

STARTCHAR N
ENCODING 78
SWIDTH 833 0
DWIDTH 14 0
BBX 15 13 0 0
BITMAP
3C3E
0E08
0E08
0F08
0F10
1390
1390
11D0
11D0
20F0
20E0
2060
F820
ENDCHAR

STARTCHAR O
ENCODING 79
SWIDTH 823 0
DWIDTH 14 0
BBX 13 13 1 0
BITMAP
07C0
1870
3030
7038
6038
E038
E038
E038
E030
E070
6060
70C0
1F00
ENDCHAR

STARTCHAR P
ENCODING 80
SWIDTH 771 0
DWIDTH 13 0
BBX 14 13 0 0
BITMAP
3FE0
0E38
0E1C
0E1C
1C1C
1C38
1FE0
1C00
1C00
3800
3800
3800
FE00
ENDCHAR

STARTCHAR Q
ENCODING 81
SWIDTH 823 0
DWIDTH 14 0
BBX 13 15 1 -2
BITMAP
07C0
1870
3030
7038
6038
E038
E038
EE38
FB30
F170
6160
71C0
1F80
00C0
0078
ENDCHAR

STARTCHAR R
ENCODING 82
SWIDTH 823 0
DWIDTH 14 0
BBX 14 13 0 0
BITMAP
3FE0
0E38
0E1C
0E1C
1C1C
1C38
1FE0
1DC0
1CE0
38E0
3870
3870
FE38
ENDCHAR

STARTCHAR S
ENCODING 83
SWIDTH 667 0
DWIDTH 11 0
BBX 11 13 0 0
BITMAP
0FC0
38E0
7060
7040
7840
3E00
1F00
0780
43C0
41C0
C1C0
E380
7E00
ENDCHAR

STARTCHAR T
ENCODING 84
SWIDTH 750 0
DWIDTH 13 0
BBX 11 13 3 0
BITMAP
7FE0
EEE0
CE60
8E40
9C40
1C00
1C00
1C00
1C00
3800
3800
3800
FE00
ENDCHAR

STARTCHAR U
ENCODING 85
SWIDTH 792 0
DWIDTH 13 0
BBX 13 13 1 0
BITMAP
FE78
3830
3820
3820
7020
7040
7040
7040
E040
E080
E080
7100
3E00
ENDCHAR

STARTCHAR V
ENCODING 86
SWIDTH 771 0
DWIDTH 13 0
BBX 14 13 1 0
BITMAP
FC7C
3830
3820
3840
3840
1C80
1C80
1D00
1D00
1E00
0C00
0C00
0800
ENDCHAR

STARTCHAR W
ENCODING 87
SWIDTH 1104 0
DWIDTH 19 0
BBX 19 13 1 0
BITMAP
F9F3E0
70E180
70E100
70E100
397200
397200
3A7400
3A7400
1C3800
1C3800
0C3000
082000
082000
ENDCHAR

STARTCHAR X
ENCODING 88
SWIDTH 823 0
DWIDTH 14 0
BBX 16 13 -1 0
BITMAP
3F1F
0E0C
0E08
0710
0720
03C0
0380
0380
05C0
08E0
10E0
3070
F8FC
ENDCHAR

STARTCHAR Y
ENCODING 89
SWIDTH 771 0
DWIDTH 13 0
BBX 13 13 1 0
BITMAP
F8F8
7060
3840
3880
1C80
1D00
0E00
0E00
0E00
1C00
1C00
1C00
7F00
ENDCHAR

STARTCHAR Z
ENCODING 90
SWIDTH 719 0
DWIDTH 12 0
BBX 12 13 0 0
BITMAP
3FF0
3070
60E0
41C0
4380
0700
0E00
0E00
1C20
3820
7060
E0C0
FFC0
ENDCHAR

STARTCHAR bracketleft
ENCODING 91
SWIDTH 396 0
DWIDTH 7 0
BBX 8 16 0 -3
BITMAP
1F
1C
1C
38
38
38
38
38
70
70
70
70
70
E0
E0
F8
ENDCHAR

STARTCHAR backslash
ENCODING 92
SWIDTH 552 0
DWIDTH 9 0
BBX 8 13 1 0
BITMAP
C0
40
60
20
30
10
18
08
0C
04
06
02
03
ENDCHAR

STARTCHAR bracketright
ENCODING 93
SWIDTH 396 0
DWIDTH 7 0
BBX 8 16 -1 -3
BITMAP
1F
07
07
0E
0E
0E
0E
0E
1C
1C
1C
1C
1C
38
38
F8
ENDCHAR

STARTCHAR asciicircum
ENCODING 94
SWIDTH 573 0
DWIDTH 10 0
BBX 7 6 2 7
BITMAP
10
38
28
6C
44
C6
ENDCHAR

STARTCHAR underscore
ENCODING 95
SWIDTH 500 0
DWIDTH 9 0
BBX 9 1 0 -4
BITMAP
FF80
ENDCHAR

STARTCHAR quoteleft
ENCODING 96
SWIDTH 323 0
DWIDTH 5 0
BBX 3 5 2 8
BITMAP
60
80
C0
E0
C0
ENDCHAR

STARTCHAR a
ENCODING 97
SWIDTH 667 0
DWIDTH 11 0
BBX 11 9 1 0
BITMAP
0EC0
33C0
7380
6380
E300
E700
E720
F740
7B80
ENDCHAR

STARTCHAR b
ENCODING 98
SWIDTH 635 0
DWIDTH 11 0
BBX 10 13 1 0
BITMAP
3C00
1C00
1C00
3800
3F00
3980
71C0
71C0
71C0
E180
E380
E300
DC00
ENDCHAR

STARTCHAR c
ENCODING 99
SWIDTH 510 0
DWIDTH 9 0
BBX 9 9 1 0
BITMAP
0F00
3980
7080
6000
E000
E000
E100
F200
7C00
ENDCHAR

STARTCHAR d
ENCODING 100
SWIDTH 667 0
DWIDTH 11 0
BBX 11 13 1 0
BITMAP
01E0
00E0
00E0
01C0
1DC0
33C0
61C0
E380
E380
E380
E720
6740
3980
ENDCHAR

STARTCHAR e
ENCODING 101
SWIDTH 500 0
DWIDTH 9 0
BBX 9 9 1 0
BITMAP
0F00
3380
7380
E300
E600
F800
E100
6200
3C00
ENDCHAR

STARTCHAR f
ENCODING 102
SWIDTH 406 0
DWIDTH 7 0
BBX 12 16 -2 -3
BITMAP
00E0
01B0
0310
0700
1FE0
0700
0700
0E00
0E00
0E00
0E00
1C00
1C00
1800
D800
7000
ENDCHAR

STARTCHAR g
ENCODING 103
SWIDTH 625 0
DWIDTH 11 0
BBX 12 12 0 -3
BITMAP
07B0
18E0
38E0
38E0
38C0
1F00
6000
7F80
3FC0
E1C0
E180
7F00
ENDCHAR

STARTCHAR h
ENCODING 104
SWIDTH 677 0
DWIDTH 12 0
BBX 12 13 1 0
BITMAP
3C00
1C00
1C00
3800
3F80
39C0
39C0
71C0
71C0
7380
E390
E3A0
E1C0
ENDCHAR

STARTCHAR i
ENCODING 105
SWIDTH 396 0
DWIDTH 7 0
BBX 6 13 1 0
BITMAP
1C
1C
1C
00
78
38
38
70
70
70
E4
E8
70
ENDCHAR

STARTCHAR j
ENCODING 106
SWIDTH 396 0
DWIDTH 7 0
BBX 10 16 -2 -3
BITMAP
01C0
01C0
01C0
0000
0780
0380
0380
0700
0700
0700
0E00
0E00
0C00
9C00
D800
7000
ENDCHAR

STARTCHAR k
ENCODING 107
SWIDTH 646 0
DWIDTH 11 0
BBX 10 13 1 0
BITMAP
3C00
1C00
1C00
3800
3B00
3580
7800
7800
7C00
6C00
EE40
E680
E700
ENDCHAR

STARTCHAR l
ENCODING 108
SWIDTH 396 0
DWIDTH 7 0
BBX 6 13 1 0
BITMAP
3C
1C
1C
38
38
38
70
70
70
E0
E4
E8
70
ENDCHAR

STARTCHAR m
ENCODING 109
SWIDTH 948 0
DWIDTH 16 0
BBX 16 9 0 0
BITMAP
77BC
39CE
39CE
39CE
739C
739C
73B9
E73A
E71C
ENDCHAR

STARTCHAR n
ENCODING 110
SWIDTH 677 0
DWIDTH 12 0
BBX 12 9 0 0
BITMAP
7BC0
3CE0
38E0
39C0
71C0
71C0
7390
E3A0
E1C0
ENDCHAR

STARTCHAR o
ENCODING 111
SWIDTH 594 0
DWIDTH 10 0
BBX 9 9 1 0
BITMAP
0E00
3300
6380
E380
E380
E380
E300
6600
3800
ENDCHAR

STARTCHAR p
ENCODING 112
SWIDTH 646 0
DWIDTH 11 0
BBX 11 12 0 -3
BITMAP
3F00
1DC0
1CE0
1CE0
38E0
38E0
38C0
3980
7E00
7000
7000
F800
ENDCHAR

STARTCHAR q
ENCODING 113
SWIDTH 625 0
DWIDTH 11 0
BBX 10 12 1 -3
BITMAP
0F40
31C0
71C0
E1C0
E380
E380
E380
6380
3F00
0700
0700
0F80
ENDCHAR

STARTCHAR r
ENCODING 114
SWIDTH 552 0
DWIDTH 9 0
BBX 9 9 1 0
BITMAP
7700
3D80
3880
3800
7000
7000
7000
E000
E000
ENDCHAR

STARTCHAR s
ENCODING 115
SWIDTH 500 0
DWIDTH 9 0
BBX 8 9 1 0
BITMAP
3E
73
71
78
3C
1E
8E
CE
7C
ENDCHAR

STARTCHAR t
ENCODING 116
SWIDTH 406 0
DWIDTH 7 0
BBX 6 13 1 0
BITMAP
08
18
18
38
FC
38
70
70
70
E0
E4
E8
70
ENDCHAR

STARTCHAR u
ENCODING 117
SWIDTH 677 0
DWIDTH 12 0
BBX 12 9 1 0
BITMAP
78E0
38E0
39C0
71C0
71C0
7380
E390
E7A0
7BC0
ENDCHAR

STARTCHAR v
ENCODING 118
SWIDTH 562 0
DWIDTH 10 0
BBX 9 9 1 0
BITMAP
7B00
3980
3880
7080
7080
7180
E100
E200
7C00
ENDCHAR

STARTCHAR w
ENCODING 119
SWIDTH 865 0
DWIDTH 15 0
BBX 14 9 1 0
BITMAP
79D8
39CC
39C4
71C4
7184
738C
E388
E390
7CE0
ENDCHAR

STARTCHAR x
ENCODING 120
SWIDTH 625 0
DWIDTH 11 0
BBX 12 9 0 0
BITMAP
3860
5CB0
1D80
0F00
0600
0F00
1B80
D3A0
61C0
ENDCHAR

STARTCHAR y
ENCODING 121
SWIDTH 552 0
DWIDTH 9 0
BBX 9 12 0 -3
BITMAP
7300
B180
3880
3880
1880
1D80
1D00
0E00
0C00
8800
D000
6000
ENDCHAR

STARTCHAR z
ENCODING 122
SWIDTH 542 0
DWIDTH 9 0
BBX 10 9 0 0
BITMAP
1EC0
3F80
5B00
0600
0C00
1800
3680
7F00
DE00
ENDCHAR

STARTCHAR braceleft
ENCODING 123
SWIDTH 396 0
DWIDTH 7 0
BBX 6 16 1 -3
BITMAP
0C
18
38
38
30
30
60
C0
60
60
E0
E0
C0
C0
C0
60
ENDCHAR

STARTCHAR bar
ENCODING 124
SWIDTH 542 0
DWIDTH 9 0
BBX 2 13 4 0
BITMAP
C0
C0
C0
C0
C0
C0
C0
C0
C0
C0
C0
C0
C0
ENDCHAR

STARTCHAR braceright
ENCODING 125
SWIDTH 396 0
DWIDTH 7 0
BBX 6 16 0 -3
BITMAP
18
0C
0C
0C
1C
1C
18
18
0C
18
30
30
70
70
60
C0
ENDCHAR

STARTCHAR asciitilde
ENCODING 126
SWIDTH 667 0
DWIDTH 11 0
BBX 9 3 1 4
BITMAP
7880
BE80
8F00
ENDCHAR

STARTCHAR space
ENCODING 160
SWIDTH 250 0
DWIDTH 5 0
BBX 0 0 0 0
BITMAP
ENDCHAR

STARTCHAR afii10023
ENCODING 161
SWIDTH 740 0
DWIDTH 13 0
BBX 13 16 0 0
BITMAP
0660
0660
0000
3FF0
0E38
0E18
0E10
1C50
1C40
1FC0
1C80
1C90
3810
3830
3860
FFE0
ENDCHAR

STARTCHAR afii10051
ENCODING 162
SWIDTH 896 0
DWIDTH 15 0
BBX 15 13 0 0
BITMAP
7FFC
739C
638C
4384
8700
0778
079C
070E
070E
0E0E
0E0E
0E1C
3FB8
ENDCHAR

STARTCHAR afii10052
ENCODING 163
SWIDTH 719 0
DWIDTH 12 0
BBX 13 17 0 0
BITMAP
0070
00E0
0180
0000
3FF8
0E38
0E18
0E08
1C08
1C00
1C00
1C00
1C00
3800
3800
3800
FE00
ENDCHAR

STARTCHAR afii10053
ENCODING 164
SWIDTH 740 0
DWIDTH 13 0
BBX 12 13 1 0
BITMAP
07E0
1C70
3830
7020
E020
E000
FE00
E000
E000
E020
7020
7840
1F80
ENDCHAR

STARTCHAR afii10054
ENCODING 165
SWIDTH 667 0
DWIDTH 11 0
BBX 11 13 0 0
BITMAP
0FC0
38E0
7060
7040
7840
3E00
1F00
0780
43C0
41C0
C1C0
E380
7E00
ENDCHAR

STARTCHAR afii10055
ENCODING 166
SWIDTH 479 0
DWIDTH 8 0
BBX 9 13 0 0
BITMAP
3F80
0E00
0E00
0E00
1C00
1C00
1C00
1C00
1C00
3800
3800
3800
FE00
ENDCHAR

STARTCHAR afii10056
ENCODING 167
SWIDTH 479 0
DWIDTH 8 0
BBX 9 16 0 0
BITMAP
1980
1980
0000
3F80
0E00
0E00
0E00
1C00
1C00
1C00
1C00
1C00
3800
3800
3800
FE00
ENDCHAR

STARTCHAR afii10057
ENCODING 168
SWIDTH 656 0
DWIDTH 11 0
BBX 12 13 0 0
BITMAP
07F0
01C0
01C0
01C0
01C0
0380
0380
0380
4380
E700
C700
4E00
3800
ENDCHAR

STARTCHAR afii10058
ENCODING 169
SWIDTH 1219 0
DWIDTH 21 0
BBX 20 13 1 0
BITMAP
07FF00
019C00
011C00
011C00
033800
023800
023F80
0638E0
043870
0C7070
C87070
D870E0
71FF80
ENDCHAR

STARTCHAR afii10059
ENCODING 170
SWIDTH 1198 0
DWIDTH 20 0
BBX 20 13 0 0
BITMAP
3F3F00
0E1C00
0E1C00
0E1C00
1C3800
1C3800
1FFF80
1C38E0
1C3870
387070
387070
3870E0
FCFF80
ENDCHAR

STARTCHAR afii10060
ENCODING 171
SWIDTH 917 0
DWIDTH 16 0
BBX 13 13 1 0
BITMAP
FFF8
E738
C718
8708
0E00
0EF0
0FB8
0F18
0E38
1C38
1C70
1C70
7F78
ENDCHAR

STARTCHAR afii10061
ENCODING 172
SWIDTH 833 0
DWIDTH 14 0
BBX 16 17 0 0
BITMAP
0038
0070
00C0
0000
3F8E
0E1F
0E36
0E20
1C60
1CC0
1FC0
1DC0
1CE0
38E0
3870
3870
FE78
ENDCHAR

STARTCHAR hyphen
ENCODING 173
SWIDTH 323 0
DWIDTH 5 0
BBX 4 2 1 4
BITMAP
F0
F0
ENDCHAR

STARTCHAR afii10062
ENCODING 174
SWIDTH 781 0
DWIDTH 13 0
BBX 13 17 2 0
BITMAP
0CC0
0CC0
0780
0000
FDF8
7060
7040
7080
3880
3900
3900
3A00
1E00
1C00
C800
D800
7000
ENDCHAR

STARTCHAR afii10145
ENCODING 175
SWIDTH 865 0
DWIDTH 15 0
BBX 17 16 -1 -3
BITMAP
3FBF80
0E0E00
0E0E00
0E0E00
1C1C00
1C1C00
1C1C00
1C1C00
1C1C00
383800
383800
383800
FFFE00
038000
030000
020000
ENDCHAR

STARTCHAR afii10017
ENCODING 176
SWIDTH 802 0
DWIDTH 14 0
BBX 14 13 0 0
BITMAP
0060
0060
00E0
01E0
0370
0270
0670
0C70
1FF0
1038
3038
6038
F8FC
ENDCHAR

STARTCHAR afii10018
ENCODING 177
SWIDTH 802 0
DWIDTH 14 0
BBX 14 13 0 0
BITMAP
3FFC
0E1C
0E0C
0E04
1C04
1C00
1FE0
1C70
1C38
3838
3838
3870
FFE0
ENDCHAR

STARTCHAR afii10019
ENCODING 178
SWIDTH 802 0
DWIDTH 14 0
BBX 14 13 0 0
BITMAP
3FF0
0E38
0E1C
0E1C
1C1C
1C38
1FE0
1C70
1C38
3838
3838
3870
FFE0
ENDCHAR

STARTCHAR afii10020
ENCODING 179
SWIDTH 719 0
DWIDTH 12 0
BBX 13 13 0 0
BITMAP
3FF8
0E38
0E18
0E08
1C08
1C00
1C00
1C00
1C00
3800
3800
3800
FE00
ENDCHAR

STARTCHAR afii10021
ENCODING 180
SWIDTH 813 0
DWIDTH 14 0
BBX 15 16 0 -3
BITMAP
0FFE
0338
0238
0238
0670
0470
0470
0C70
0870
18E0
10E0
30E0
FFF0
C030
8010
8010
ENDCHAR

STARTCHAR afii10022
ENCODING 181
SWIDTH 740 0
DWIDTH 13 0
BBX 13 13 0 0
BITMAP
3FF0
0E38
0E18
0E10
1C50
1C40
1FC0
1C80
1C90
3810
3830
3860
FFE0
ENDCHAR

STARTCHAR afii10024
ENCODING 182
SWIDTH 1177 0
DWIDTH 20 0
BBX 22 13 0 0
BITMAP
38FE38
7C387C
3438D8
063880
027180
037300
03FF00
077700
0E7380
1CE380
38E1C0
70E1C0
F3F9E0
ENDCHAR

STARTCHAR afii10025
ENCODING 183
SWIDTH 656 0
DWIDTH 11 0
BBX 11 13 0 0
BITMAP
0F80
19C0
10E0
10E0
00E0
01C0
0F80
03C0
01C0
01C0
81C0
C380
3E00
ENDCHAR

STARTCHAR afii10026
ENCODING 184
SWIDTH 865 0
DWIDTH 15 0
BBX 16 13 0 0
BITMAP
3FBF
0E1C
0E1C
0E3C
1C78
1CF8
1DB8
1F38
1E38
3C70
3870
3870
FEFC
ENDCHAR

STARTCHAR afii10027
ENCODING 185
SWIDTH 865 0
DWIDTH 15 0
BBX 16 17 0 0
BITMAP
0198
0198
00F0
0000
3FBF
0E1C
0E1C
0E3C
1C78
1CF8
1DB8
1F38
1E38
3C70
3870
3870
FEFC
ENDCHAR

STARTCHAR afii10028
ENCODING 186
SWIDTH 844 0
DWIDTH 14 0
BBX 16 13 0 0
BITMAP
3F8E
0E1F
0E36
0E20
1C60
1CC0
1FC0
1DC0
1CE0
38E0
3870
3870
FE78
ENDCHAR

STARTCHAR afii10029
ENCODING 187
SWIDTH 865 0
DWIDTH 15 0
BBX 16 13 0 0
BITMAP
07FF
019C
011C
011C
0338
0238
0238
0638
0438
0C70
C870
D870
71FC
ENDCHAR

STARTCHAR afii10030
ENCODING 188
SWIDTH 1031 0
DWIDTH 18 0
BBX 19 13 0 0
BITMAP
3E03E0
0E0380
0E0780
170780
170F00
170F00
139700
13A700
13A700
23CE00
21CE00
218E00
F93F80
ENDCHAR

STARTCHAR afii10031
ENCODING 189
SWIDTH 865 0
DWIDTH 15 0
BBX 16 13 0 0
BITMAP
3FBF
0E1C
0E1C
0E1C
1C38
1C38
1FF8
1C38
1C38
3870
3870
3870
FDFC
ENDCHAR

STARTCHAR afii10032
ENCODING 190
SWIDTH 823 0
DWIDTH 14 0
BBX 13 13 1 0
BITMAP
07C0
1870
3030
7038
6038
E038
E038
E038
E030
E070
6060
70C0
1F00
ENDCHAR

STARTCHAR afii10033
ENCODING 191
SWIDTH 865 0
DWIDTH 15 0
BBX 17 13 -1 0
BITMAP
3FFF80
0E0E00
0E0E00
0E0E00
1C1C00
1C1C00
1C1C00
1C1C00
1C1C00
383800
383800
383800
FEFE00
ENDCHAR

STARTCHAR afii10034
ENCODING 192
SWIDTH 771 0
DWIDTH 13 0
BBX 14 13 0 0
BITMAP
3FF0
0E38
0E1C
0E1C
1C1C
1C38
1FF0
1C00
1C00
3800
3800
3800
FE00
ENDCHAR

STARTCHAR afii10035
ENCODING 193
SWIDTH 740 0
DWIDTH 13 0
BBX 12 13 1 0
BITMAP
07E0
1C70
3830
7020
7020
E000
E000
E000
E000
E020
7020
7840
1F80
ENDCHAR

STARTCHAR afii10036
ENCODING 194
SWIDTH 750 0
DWIDTH 13 0
BBX 11 13 3 0
BITMAP
7FE0
EEE0
CE60
8E40
9C40
1C00
1C00
1C00
1C00
3800
3800
3800
FE00
ENDCHAR

STARTCHAR afii10037
ENCODING 195
SWIDTH 781 0
DWIDTH 13 0
BBX 13 13 2 0
BITMAP
FDF8
7060
7040
7080
3880
3900
3900
3A00
1E00
1C00
C800
D800
7000
ENDCHAR

STARTCHAR afii10038
ENCODING 196
SWIDTH 990 0
DWIDTH 17 0
BBX 15 13 1 0
BITMAP
07F0
01C0
0FF8
39DC
738E
F38E
E38E
E38E
E39C
7738
3FE0
0700
1FC0
ENDCHAR

STARTCHAR afii10039
ENCODING 197
SWIDTH 823 0
DWIDTH 14 0
BBX 16 13 -1 0
BITMAP
3F1F
0E0C
0E08
0710
0720
03C0
0380
0380
05C0
08E0
10E0
3070
F8FC
ENDCHAR

STARTCHAR afii10040
ENCODING 198
SWIDTH 865 0
DWIDTH 15 0
BBX 17 16 -1 -3
BITMAP
3FBF80
0E0E00
0E0E00
0E0E00
1C1C00
1C1C00
1C1C00
1C1C00
1C1C00
383800
383800
383800
FFFC00
000C00
000400
000400
ENDCHAR

STARTCHAR afii10041
ENCODING 199
SWIDTH 823 0
DWIDTH 14 0
BBX 14 13 1 0
BITMAP
FCFC
3870
3870
7070
70E0
71E0
7FE0
3CE0
00E0
01C0
01C0
01C0
07F0
ENDCHAR

STARTCHAR afii10042
ENCODING 200
SWIDTH 1240 0
DWIDTH 21 0
BBX 21 13 0 0
BITMAP
3F7DF8
0E38E0
0E38E0
0E38E0
1C71C0
1C71C0
1C71C0
1C71C0
1C71C0
38E380
38E380
38E380
FFFFE0
ENDCHAR

STARTCHAR afii10043
ENCODING 201
SWIDTH 1240 0
DWIDTH 21 0
BBX 21 16 0 -3
BITMAP
3F7DF8
0E38E0
0E38E0
0E38E0
1C71C0
1C71C0
1C71C0
1C71C0
1C71C0
38E380
38E380
38E380
FFFFE0
000060
000020
000020
ENDCHAR

STARTCHAR afii10044
ENCODING 202
SWIDTH 938 0
DWIDTH 16 0
BBX 14 13 1 0
BITMAP
7FC0
6700
C700
8700
0E00
0E00
0FE0
0E38
0E1C
1C1C
1C1C
1C38
7FE0
ENDCHAR

STARTCHAR afii10045
ENCODING 203
SWIDTH 1240 0
DWIDTH 21 0
BBX 22 13 0 0
BITMAP
3F81FC
0E0070
0E0070
0E0070
1C00E0
1C00E0
1FC0E0
1C70E0
1C38E0
3839C0
3839C0
3871C0
FFC7F0
ENDCHAR

STARTCHAR afii10046
ENCODING 204
SWIDTH 802 0
DWIDTH 14 0
BBX 13 13 1 0
BITMAP
3F80
0E00
0E00
0E00
1C00
1C00
1FC0
1C70
1C38
3838
3838
3870
FFC0
ENDCHAR

STARTCHAR afii10047
ENCODING 205
SWIDTH 740 0
DWIDTH 13 0
BBX 12 13 1 0
BITMAP
3F80
39E0
30E0
2070
2070
0070
0FF0
0070
00E0
80E0
C1C0
6380
1E00
ENDCHAR

STARTCHAR afii10048
ENCODING 206
SWIDTH 1135 0
DWIDTH 19 0
BBX 20 13 -1 0
BITMAP
3F8780
0E18E0
0E3860
0E7070
1C7070
1CE070
1FE070
1CE070
1CE0E0
38E0E0
3861C0
387180
FE1E00
ENDCHAR

STARTCHAR afii10049
ENCODING 207
SWIDTH 844 0
DWIDTH 14 0
BBX 15 13 0 0
BITMAP
03FE
0E38
1C38
1C38
1C70
0E70
07F0
0E70
1C70
38E0
38E0
70E0
F3F8
ENDCHAR

STARTCHAR afii10065
ENCODING 208
SWIDTH 667 0
DWIDTH 11 0
BBX 11 9 1 0
BITMAP
0EC0
33C0
7380
6380
E300
E700
E720
F740
7B80
ENDCHAR

STARTCHAR afii10066
ENCODING 209
SWIDTH 594 0
DWIDTH 10 0
BBX 11 13 1 0
BITMAP
0020
1FC0
3F80
6000
4E00
7300
E380
E380
E380
E380
E300
6600
3800
ENDCHAR

STARTCHAR afii10067
ENCODING 210
SWIDTH 563 0
DWIDTH 10 0
BBX 9 9 1 0
BITMAP
0F00
3980
7180
7300
FE00
E300
E300
7600
3C00
ENDCHAR

STARTCHAR afii10068
ENCODING 211
SWIDTH 500 0
DWIDTH 9 0
BBX 9 9 0 0
BITMAP
1F00
2380
0380
0700
1C00
7000
E000
E200
7C00
ENDCHAR

STARTCHAR afii10069
ENCODING 212
SWIDTH 594 0
DWIDTH 10 0
BBX 9 13 1 0
BITMAP
3800
0E00
0600
0300
1F00
3780
6380
E380
E380
E380
E300
6600
3800
ENDCHAR

STARTCHAR afii10070
ENCODING 213
SWIDTH 500 0
DWIDTH 9 0
BBX 9 9 1 0
BITMAP
0F00
3380
7380
E300
E600
F800
E100
6200
3C00
ENDCHAR

STARTCHAR afii10072
ENCODING 214
SWIDTH 1146 0
DWIDTH 19 0
BBX 19 9 0 0
BITMAP
3C63C0
6E6760
476E60
076E00
07FC00
0EDC00
CEDC40
DCCEC0
78C780
ENDCHAR

STARTCHAR afii10073
ENCODING 215
SWIDTH 542 0
DWIDTH 9 0
BBX 8 9 1 0
BITMAP
3E
67
43
07
1E
07
C7
CE
7C
ENDCHAR

STARTCHAR afii10074
ENCODING 216
SWIDTH 677 0
DWIDTH 12 0
BBX 12 9 1 0
BITMAP
78E0
38E0
39C0
71C0
71C0
7380
E390
E7A0
7BC0
ENDCHAR

STARTCHAR afii10075
ENCODING 217
SWIDTH 677 0
DWIDTH 12 0
BBX 12 12 1 0
BITMAP
0C80
0700
0000
78E0
38E0
39C0
71C0
71C0
7380
E390
E7A0
7BC0
ENDCHAR

STARTCHAR afii10076
ENCODING 218
SWIDTH 646 0
DWIDTH 11 0
BBX 10 9 1 0
BITMAP
79C0
3AC0
3A00
7400
7C00
7E00
E600
E700
E780
ENDCHAR

STARTCHAR afii10077
ENCODING 219
SWIDTH 708 0
DWIDTH 12 0
BBX 13 9 0 0
BITMAP
0FF0
0670
0670
04E0
0CE0
08E0
D9C8
D9D0
70E0
ENDCHAR

STARTCHAR afii10078
ENCODING 220
SWIDTH 948 0
DWIDTH 16 0
BBX 16 9 0 0
BITMAP
1F0E
071E
0716
0B2E
0B4C
0B5C
D399
D31A
620C
ENDCHAR

STARTCHAR afii10079
ENCODING 221
SWIDTH 688 0
DWIDTH 12 0
BBX 12 9 0 0
BITMAP
78E0
38E0
38E0
71C0
7FC0
71C0
E390
E3A0
E1C0
ENDCHAR

STARTCHAR afii10080
ENCODING 222
SWIDTH 594 0
DWIDTH 10 0
BBX 9 9 1 0
BITMAP
0E00
3300
6380
E380
E380
E380
E300
6600
3800
ENDCHAR

STARTCHAR afii10081
ENCODING 223
SWIDTH 677 0
DWIDTH 12 0
BBX 12 9 0 0
BITMAP
7BC0
3CE0
38E0
39C0
71C0
71C0
7390
E3A0
E1C0
ENDCHAR

STARTCHAR afii10082
ENCODING 224
SWIDTH 646 0
DWIDTH 11 0
BBX 11 12 0 -3
BITMAP
3F00
1DC0
1CE0
1CE0
38E0
38E0
38C0
3980
7E00
7000
7000
F800
ENDCHAR

STARTCHAR afii10083
ENCODING 225
SWIDTH 510 0
DWIDTH 9 0
BBX 9 9 1 0
BITMAP
0F00
3980
7080
6000
E000
E000
E100
F200
7C00
ENDCHAR

STARTCHAR afii10084
ENCODING 226
SWIDTH 958 0
DWIDTH 16 0
BBX 16 9 0 0
BITMAP
77BC
39CE
39CE
39CE
739C
739C
73B9
E73A
E71C
ENDCHAR

STARTCHAR afii10085
ENCODING 227
SWIDTH 531 0
DWIDTH 9 0
BBX 9 12 0 -3
BITMAP
7300
B180
3880
3880
1880
1D80
1D00
0E00
0C00
8800
D000
6000
ENDCHAR

STARTCHAR afii10086
ENCODING 228
SWIDTH 833 0
DWIDTH 14 0
BBX 13 16 1 -3
BITMAP
0078
00D8
00C0
01C0
1DB0
37D8
6398
6318
E738
C730
C630
CF60
75C0
0C00
CC00
F800
ENDCHAR

STARTCHAR afii10087
ENCODING 229
SWIDTH 615 0
DWIDTH 11 0
BBX 12 9 0 0
BITMAP
3860
5CB0
1D80
0F00
0600
0F00
1B80
D3A0
61C0
ENDCHAR

STARTCHAR afii10088
ENCODING 230
SWIDTH 677 0
DWIDTH 12 0
BBX 12 13 1 -4
BITMAP
78E0
38E0
39C0
71C0
71C0
7380
E390
E7A0
7BE0
0020
0060
0060
00C0
ENDCHAR

STARTCHAR afii10089
ENCODING 231
SWIDTH 646 0
DWIDTH 11 0
BBX 11 9 1 0
BITMAP
F1C0
71C0
71C0
E380
F780
7B80
0720
0740
0380
ENDCHAR

STARTCHAR afii10090
ENCODING 232
SWIDTH 948 0
DWIDTH 16 0
BBX 16 9 1 0
BITMAP
79CE
39CE
3B9C
739C
739C
7738
E739
EF7A
77BC
ENDCHAR

STARTCHAR afii10091
ENCODING 233
SWIDTH 948 0
DWIDTH 16 0
BBX 16 13 1 -4
BITMAP
79CE
39CE
3B9C
739C
739C
7738
E739
EF7A
77BE
0002
0006
0006
000C
ENDCHAR

STARTCHAR afii10092
ENCODING 234
SWIDTH 646 0
DWIDTH 11 0
BBX 10 9 1 0
BITMAP
7C00
9C00
1800
3F00
3980
71C0
71C0
3380
1E00
ENDCHAR

STARTCHAR afii10093
ENCODING 235
SWIDTH 917 0
DWIDTH 16 0
BBX 16 9 1 0
BITMAP
781E
380E
380E
7E1C
731C
E39C
E3B9
673A
3C1C
ENDCHAR

STARTCHAR afii10094
ENCODING 236
SWIDTH 604 0
DWIDTH 10 0
BBX 9 9 1 0
BITMAP
F800
3800
3800
7E00
7300
E380
E380
6700
3C00
ENDCHAR

STARTCHAR afii10095
ENCODING 237
SWIDTH 521 0
DWIDTH 9 0
BBX 9 9 0 0
BITMAP
3E00
6700
4380
0380
1F80
0700
C700
CE00
7800
ENDCHAR

STARTCHAR afii10096
ENCODING 238
SWIDTH 885 0
DWIDTH 15 0
BBX 15 9 0 0
BITMAP
7838
38CC
398E
738E
7F8E
738E
738C
E198
E0E0
ENDCHAR

STARTCHAR afii10097
ENCODING 239
SWIDTH 667 0
DWIDTH 11 0
BBX 12 9 0 0
BITMAP
1FE0
38E0
30E0
39C0
1FC0
39C0
7390
73A0
E1C0
ENDCHAR

STARTCHAR afii61352
ENCODING 240
SWIDTH 1115 0
DWIDTH 19 0
BBX 19 13 0 0
BITMAP
0F0300
070780
078500
078800
0589C0
05CB60
09CE60
09D660
08D6C0
08F380
D0E000
D06000
606780
ENDCHAR

STARTCHAR afii10071
ENCODING 241
SWIDTH 500 0
DWIDTH 9 0
BBX 9 12 1 0
BITMAP
3300
3300
0000
0F00
3380
7380
E300
E600
F800
E100
6200
3C00
ENDCHAR

STARTCHAR afii10099
ENCODING 242
SWIDTH 635 0
DWIDTH 12 0
BBX 10 16 1 -3
BITMAP
7C00
1C00
7FC0
3800
3F80
39C0
39C0
71C0
71C0
7380
E380
E380
E700
0700
0E00
1C00
ENDCHAR

STARTCHAR afii10100
ENCODING 243
SWIDTH 563 0
DWIDTH 10 0
BBX 10 13 0 0
BITMAP
01C0
0380
0600
0000
3FC0
1CC0
1C40
3800
3800
3800
7000
7000
F800
ENDCHAR

STARTCHAR afii10101
ENCODING 244
SWIDTH 510 0
DWIDTH 9 0
BBX 9 9 1 0
BITMAP
0F00
3980
7080
6000
FE00
E000
E100
F200
7C00
ENDCHAR

STARTCHAR afii10102
ENCODING 245
SWIDTH 500 0
DWIDTH 9 0
BBX 8 9 1 0
BITMAP
3E
73
71
78
3C
1E
8E
CE
7C
ENDCHAR

STARTCHAR afii10103
ENCODING 246
SWIDTH 396 0
DWIDTH 7 0
BBX 6 13 1 0
BITMAP
1C
1C
1C
00
F8
38
38
70
70
70
E4
E8
70
ENDCHAR

STARTCHAR afii10104
ENCODING 247
SWIDTH 396 0
DWIDTH 7 0
BBX 7 12 1 0
BITMAP
66
66
00
78
38
38
70
70
70
E4
E8
70
ENDCHAR

STARTCHAR afii10105
ENCODING 248
SWIDTH 396 0
DWIDTH 7 0
BBX 10 16 -2 -3
BITMAP
01C0
01C0
01C0
0000
0780
0380
0380
0700
0700
0700
0E00
0E00
0C00
9C00
D800
7000
ENDCHAR

STARTCHAR afii10106
ENCODING 249
SWIDTH 969 0
DWIDTH 16 0
BBX 16 9 0 0
BITMAP
0FF0
0670
0670
04FC
0CE6
09C7
D9C7
D9CE
70F8
ENDCHAR

STARTCHAR afii10107
ENCODING 250
SWIDTH 917 0
DWIDTH 16 0
BBX 15 9 1 0
BITMAP
78E0
38E0
39C0
71F8
7FCC
738E
E38E
E19C
E0F0
ENDCHAR

STARTCHAR afii10108
ENCODING 251
SWIDTH 677 0
DWIDTH 12 0
BBX 12 13 1 0
BITMAP
7C00
1C00
7F80
3800
3F80
39C0
39C0
71C0
71C0
7380
E390
E3A0
E1C0
ENDCHAR

STARTCHAR afii10109
ENCODING 252
SWIDTH 646 0
DWIDTH 11 0
BBX 11 13 0 0
BITMAP
00E0
01C0
0300
0000
78E0
3960
3900
7200
7E00
7700
E300
E380
E3C0
ENDCHAR

STARTCHAR section
ENCODING 253
SWIDTH 552 0
DWIDTH 9 0
BBX 8 16 1 -3
BITMAP
1E
3B
33
30
78
FC
CE
C6
63
73
3F
1E
0C
CC
DC
78
ENDCHAR

STARTCHAR afii10110
ENCODING 254
SWIDTH 531 0
DWIDTH 9 0
BBX 9 15 0 -3
BITMAP
1900
0E00
0000
7300
B180
3880
3880
1880
1D80
1D00
0E00
0C00
8800
D000
6000
ENDCHAR

STARTCHAR afii10193
ENCODING 255
SWIDTH 677 0
DWIDTH 12 0
BBX 12 13 1 -4
BITMAP
78E0
38E0
39C0
71C0
71C0
7380
E390
E7A0
7BC0
2000
3000
3000
6000
ENDCHAR
ENDFONT
